<?xml version="1.0" encoding="UTF-8" standalone="no"?>
<!-- Created with Inkscape (http://www.inkscape.org/) -->

<svg
   width="210mm"
   height="297mm"
   viewBox="0 0 210 297"
   version="1.1"
   id="svg5"
   inkscape:version="1.1.1 (c3084ef, 2021-09-22)"
   sodipodi:docname="LOGO VECTOR MCR.svg"
   xmlns:inkscape="http://www.inkscape.org/namespaces/inkscape"
   xmlns:sodipodi="http://sodipodi.sourceforge.net/DTD/sodipodi-0.dtd"
   xmlns="http://www.w3.org/2000/svg"
   xmlns:svg="http://www.w3.org/2000/svg">
  <sodipodi:namedview
     id="namedview7"
     pagecolor="#ffffff"
     bordercolor="#666666"
     borderopacity="1.0"
     inkscape:pageshadow="2"
     inkscape:pageopacity="0.0"
     inkscape:pagecheckerboard="0"
     inkscape:document-units="mm"
     showgrid="false"
     inkscape:snap-global="false"
     inkscape:zoom="0.36721288"
     inkscape:cx="418.01366"
     inkscape:cy="676.71917"
     inkscape:window-width="1399"
     inkscape:window-height="789"
     inkscape:window-x="7"
     inkscape:window-y="25"
     inkscape:window-maximized="0"
     inkscape:current-layer="g47" />
  <defs
     id="defs2" />
  <g
     inkscape:label="Capa 1"
     inkscape:groupmode="layer"
     id="layer1">
    <g
       transform="matrix(0.03527778,0,0,-0.03527778,33.485924,212.01742)"
       fill="#000000"
       stroke="none"
       id="g47">
      <path
         d="m 1845,3803 c -431,-26 -720,-66 -951,-133 -101,-30 -272,-95 -287,-109 -6,-6 -70.22818,-610.9127 -70.22818,-610.9127 0,0 -30.77182,-0.087 -130.77182,-0.087 H 272 l -11,-32 c -20,-63 -37.61409,-186.0704 -37.61409,-186.0704 l 419,-0.386 c 0,0 34.61409,305.4564 47.61409,513.4564 6,94 15,192 15,192 0,0 28,29 142,66 270,88 449,125 768,158 337,35 821,16 1138,-46 168,-32 548,-143 561,-163 2,-4 9,-77 15,-162 18,-240 41,-502 47,-532 l 5,-28 210,1 c 134.2398,0 214.1609,0.4268 214.1609,0.4268 0,0 -8.7572,56.6426 -21.1609,111.5732 -12.9033,56.5761 -26.258,95.9706 -30.04,99.3358 -3.101,2.7593 -53.4081,4.4366 -129.888,6.742 -94.9569,2.8625 -135.7049,5.6655 -135.7049,5.6655 0,0 -19.3671,144.2567 -33.3671,295.2567 -15,151 -30,285 -35,296 -10,26 -158,87 -323,133 -296,83 -916,145 -1252,124 z"
         id="path37"
         sodipodi:nodetypes="ccccscccccccccccccccccsccccc" />
      <path
         d="m 1930,3542 c -23.8792,-7.4532 -47.3839,-16.6119 -69.5215,-28.2606 -26.665,-14.0309 -41.4509,-21.1953 -75.4785,-49.7394 -64.431,-54.0481 -105.254,-136.7617 -127,-218 -19.5659,-73.094 -21.7294,-143.9255 1,-227 25.5785,-93.4879 69.2572,-176.1829 134.4453,-230.1333 56.8489,-47.0488 79.3365,-56.119 126.6661,-73.4735 0,0 -0.1114,-9.4069 -0.1114,-25.3932 v -39 l -409,-3 -432.1844,-4.5846 c 0,0 -20.7149,-26.5954 -27.6224,-38.9469 -11.819,-21.134 -15.5147,-50.9332 -15.2564,-74.3307 0.2361,-21.3783 8.0295,-42.8111 16.9862,-62.153 10.1267,-21.8687 22.1515,-39.8231 22.1515,-39.8231 0,0 144.6529,-4.1978 437.9255,-6.1617 l 407,-3 v -42 c 0,-23 -7,-233 -15,-467 -25,-662 -57,-795 -210,-866 -135,-63 -300,1 -489,190 -66,67 -204.7313,235.8157 -186,239 l 100,17 100,24 c 5.8343,1.4002 -35,17.7911 -76,42.7911 C 942,1676.7911 832,1847 753,2128 c -21,73 -42,131 -48,129 -6,-2 -11,-76 -13,-198 -3,-205 7,-286 50,-414 55,-168 203,-411 338,-558 178,-192 522,-429 820,-562 53.2585,-23.67046 113.3657,-37.92161 113.3657,-37.92161 0,0 92.6254,26.26252 219.6343,90.92161 177,91 278,153 437,271 403,299 644,692 666,1085 8,132 -3,329 -18,324 -6,-2 -26.6708,-67.3427 -47,-133 -62.0793,-200.4973 -121.1808,-321.8211 -232,-434 -52.1813,-52.8215 -180,-144 -220,-156 -9.9831,-3.3277 -17.385,-10.411 -17.385,-10.411 0,0 31.4411,-23.9167 105.385,-34.589 l 101,-15 -16,-25 c -104,-162 -252,-306 -395,-385 -175,-96 -349,-36 -405,140 -43,133 -51,213 -66,595 -8,206 -18,430 -21,498 l -7,122 h 397 c 286.6915,0 437.0207,1.1201 437.0207,1.1201 0,0 29.033,34.0359 36.4265,54.5482 13.4742,37.3825 20.2359,56.113 2.1105,112.1106 -7.8507,24.2545 -40.7493,59.8729 -40.7493,59.8729 0,0 -158.1116,2.3482 -429.8084,2.3482 h -400 v 29 c 0,12.6936 -0.101,30.6914 -0.101,30.6914 0,0 26.0943,4.679 48.101,10.3086 83,21 176,91 229,174 l 26,40 -36.315,30.9449 L 2323,2999 c 0,0 -40.9243,-58.2226 -65.8225,-83.4131 -20.256,-20.4938 -42.2407,-39.9936 -67.2312,-54.3386 -24.4948,-14.0604 -51.0924,-27.5483 -79.2255,-30.0424 C 2067.9102,2827.4107 2023,2832 1984,2855 c -200,124 -165,525 52,585 24,7 58,10 77,6 52,-10 121,-59 167,-120 l 42,-56 28,20 c 32.3157,22.8903 61.075,42.1209 61.075,42.1209 0,0 -16.1071,24.814 -24.6766,36.8649 -10.5277,14.8048 -21.198,29.5465 -32.8257,43.5039 -13.4689,16.1676 -27.3498,32.1026 -42.6962,46.5001 -20.0474,18.8079 -40.7314,37.4372 -64.1758,51.7898 -23.097,14.1399 -48.174,25.5968 -74.1939,33.1049 -33.8728,9.774 -69.4803,13.3564 -104.6974,14.9844 -26.6342,1.2313 -53.4665,-0.407 -79.8888,-3.9789 -19.6009,-2.6498 -39.0397,-6.9969 -57.9206,-12.89 z"
         id="path39"
         sodipodi:nodetypes="assasscscccssscccscccscsccsccccccccsssccccccccccscsscscsccccccaaacccccccaaaaaaaa" />
      <path
         d="m 2510,3076 v -326 h 110 110 v 145 c 0,80 4,145 8,145 5,0 42,-35 83,-77 41,-43 173,-180 295,-305 l 221,-228 h 253 253 l -6,93 c -3,51 -16.7048,126.0541 -16.7048,126.0541 0,0 -25.2952,0.9459 -219.2952,0.9459 h -216 l -105,108 c -58,59 -147,150 -199,204 l -93,96 66,31 c 92,45 126,97 107,168 -13,48 -50,85 -116,115 -47,22 -64,23 -292,26 l -243,4 z m 358,243 c 35,-12 72,-64 72,-101 0,-59 -74,-108 -161,-108 h -49 v 110 110 h 54 c 29,0 67,-5 84,-11 z"
         id="path41"
         sodipodi:nodetypes="ccccsscccccccscccccccccccsscccsc" />
      <path
         d="M 783.20446,3387.7955 C 783.20446,3387.7955 780,3213 780,3013 V 2650 H 491 202 l -8,-67 c -4,-38 -8,-86 -8,-108 l -1,-40 352,-3 353,-2 2,357 3,358 101.5846,-191.8308 111.6043,-200.662 67.8583,-1.1773 88.7066,188.6701 90.2462,191 5,-188 5,-188 h 80 c 58,0 76.9989,0.9937 76.9989,0.9937 V 3085 l -2,305 h -75 -76 l -95,-197 c -53,-109 -114.5911,-229.9777 -114.5911,-229.9777 0,0 -27.4089,52.9777 -108.4089,213.9777 l -109.79554,211.7955 -73.73482,0.4697 z"
         id="path43"
         sodipodi:nodetypes="cscccccccccccccccccsccccccccccc" />
      <path
         d="m 180,2256 c 0,-47 11.61409,-134.2113 11.61409,-134.2113 0,0 8.38591,-1.7887 133.38591,-1.7887 h 125 v -127 c 1,-276 52,-508 160,-724 132,-262 298,-461 543,-651 133,-102 209,-152 427,-278 107,-62 246,-146 308,-186 62,-41 117,-74 123,-74 6,0 36,17 67,39 84,56 221,140 357,216 448,253 720,495 907,805 156,260 216,474 234,838 l 7,142 h 119 c 83.7144,-0.974 131.8766,1.286 131.8766,1.286 0,0 13.4521,64.8487 12.1234,134.714 l -1.6445,86.4699 L 3637,2340 h -216 l 6,-222 c 6,-255 -3,-334 -62,-516 C 3257,1267 2998,954 2626,707 2458,595 2074,410 2010,410 c -12,0 -77,23 -144,51 -702,294 -1150,766 -1257,1324 -13,71 -18,309 -9,465 l 5,85 -212,3 -213,2 z"
         id="path45"
         sodipodi:nodetypes="scsccccccscccccccsccccccsccccccs" />
    </g>
  </g>
</svg>
